<?xml version="1.0" encoding="UTF-8"?>
<!DOCTYPE svg PUBLIC "-//W3C//DTD SVG 1.1//EN" "http://www.w3.org/Graphics/SVG/1.1/DTD/svg11.dtd">
<!-- Creator: CorelDRAW 2020 (64-Bit) -->
<svg xmlns="http://www.w3.org/2000/svg" xml:space="preserve" width="2.95532in" height="3.14885in" version="1.1" style="shape-rendering:geometricPrecision; text-rendering:geometricPrecision; image-rendering:optimizeQuality; fill-rule:evenodd; clip-rule:evenodd"
viewBox="0 0 2441.64 2601.53"
 xmlns:xlink="http://www.w3.org/1999/xlink"
 xmlns:xodm="http://www.corel.com/coreldraw/odm/2003">
 <defs>
  <style type="text/css">
   <![CDATA[
    .fil2 {fill:#CCCCCC}
    .fil1 {fill:#E6E6E6}
    .fil0 {fill:#FFCC00}
   ]]>
  </style>
 </defs>
 <g id="Layer_x0020_1">
  <metadata id="CorelCorpID_0Corel-Layer"/>
  <path class="fil0" d="M1526.29 466.18c447.69,0 810.6,362.91 810.6,810.59 0,14.52 -0.42,28.94 -1.18,43.26 -0.79,14.78 -4.94,25.52 -22.5,27.18l-812.21 -3.47 -560.01 -597.86c-6.44,-7.18 -6.85,-21.26 0,-29.87 147.54,-153.96 355.22,-249.83 585.31,-249.83z"/>
  <path class="fil1" d="M1531.09 531.27c428.17,0 775.26,347.09 775.26,775.26 0,13.89 -2.98,65.47 -3.71,79.17 -0.75,14.13 -4.73,24.41 -21.52,25.99l-757.05 -11.05 -552.78 -601.86c-6.16,-6.87 -6.55,-20.34 0,-28.57 141.11,-147.25 339.74,-238.94 559.8,-238.94z"/>
  <path class="fil1" d="M2265.04 1500.31c0.14,5.63 0.22,11.27 0.22,16.93 0,379.78 -307.88,687.66 -687.66,687.66 -237.22,0 -446.38,-120.12 -569.99,-302.85l580.24 -429.16 9.81 13.08 645.75 -0.22c11.13,0.93 18.64,5.49 21.63,14.57z"/>
  <path class="fil0" d="M1119.42 1981.74l434.62 -436.07 599.42 5.84c-27.79,620.55 -758.31,728.02 -1034.04,430.24z"/>
  <path class="fil2" d="M776.41 0l3.69 0c13.18,0 23.96,10.78 23.96,23.96l0 44.6 45.71 0c13.18,0 23.96,10.78 23.96,23.96l0 3.69c0,13.18 -10.78,23.96 -23.96,23.96l-45.71 0 0 46.82c0,13.18 -10.78,23.96 -23.96,23.96l-3.69 0c-13.18,0 -23.96,-10.78 -23.96,-23.96l0 -46.82 -45.71 0c-13.18,0 -23.96,-10.78 -23.96,-23.96l0 -3.69c0,-13.18 10.78,-23.96 23.96,-23.96l45.71 0 0 -44.6c0,-13.18 10.78,-23.96 23.96,-23.96z"/>
  <path class="fil2" d="M2344.32 2410.58l3.69 0c13.18,0 23.96,10.78 23.96,23.96l0 44.6 45.71 0c13.18,0 23.96,10.78 23.96,23.96l0 3.69c0,13.18 -10.78,23.96 -23.96,23.96l-45.71 0 0 46.82c0,13.18 -10.78,23.96 -23.96,23.96l-3.69 0c-13.18,0 -23.96,-10.78 -23.96,-23.96l0 -46.82 -45.71 0c-13.18,0 -23.96,-10.78 -23.96,-23.96l0 -3.69c0,-13.18 10.78,-23.96 23.96,-23.96l45.71 0 0 -44.6c0,-13.18 10.78,-23.96 23.96,-23.96z"/>
  <path class="fil2" d="M93.63 2275.88l3.69 0c13.18,0 23.96,10.78 23.96,23.96l0 44.61 45.71 0c13.18,0 23.96,10.78 23.96,23.96l0 3.69c0,13.18 -10.78,23.96 -23.96,23.96l-45.71 0 0 46.82c0,13.18 -10.78,23.96 -23.96,23.96l-3.69 0c-13.18,0 -23.96,-10.78 -23.96,-23.96l0 -46.82 -45.71 0c-13.18,0 -23.96,-10.78 -23.96,-23.96l0 -3.69c0,-13.18 10.78,-23.96 23.96,-23.96l45.71 0 0 -44.61c0,-13.18 10.78,-23.96 23.96,-23.96z"/>
 </g>
</svg>
