<?xml version="1.0" encoding="UTF-8"?>
<!DOCTYPE svg PUBLIC "-//W3C//DTD SVG 1.1//EN" "http://www.w3.org/Graphics/SVG/1.1/DTD/svg11.dtd">
<!-- Creator: CorelDRAW 2020 (64-Bit) -->
<svg xmlns="http://www.w3.org/2000/svg" xml:space="preserve" width="3.12052in" height="2.77239in" version="1.1" style="shape-rendering:geometricPrecision; text-rendering:geometricPrecision; image-rendering:optimizeQuality; fill-rule:evenodd; clip-rule:evenodd"
viewBox="0 0 3081.53 2737.75"
 xmlns:xlink="http://www.w3.org/1999/xlink"
 xmlns:xodm="http://www.corel.com/coreldraw/odm/2003">
 <defs>
  <style type="text/css">
   <![CDATA[
    .fil3 {fill:#4D4D4D}
    .fil1 {fill:#999999}
    .fil2 {fill:#CCCCCC}
    .fil0 {fill:#FFCC00}
    .fil4 {fill:white}
   ]]>
  </style>
 </defs>
 <g id="Layer_x0020_1">
  <metadata id="CorelCorpID_0Corel-Layer"/>
  <rect class="fil0" x="729.18" y="365.41" width="1584.35" height="423.98" rx="38.92" ry="38.92"/>
  <rect class="fil1" x="497.54" y="934.74" width="2036.35" height="571.82" rx="56.89" ry="57.28"/>
  <rect class="fil2" x="655.28" y="1083.33" width="694.03" height="92.98" rx="23.25" ry="23.25"/>
  <rect class="fil3" x="344.13" y="1648.02" width="2332.02" height="647.13" rx="65.15" ry="64.82"/>
  <path class="fil0" d="M2950.92 2481.48l4.95 0c17.69,0 32.16,14.47 32.16,32.16l0 59.86 61.35 0c17.69,0 32.16,14.47 32.16,32.16l0 4.95c0,17.69 -14.47,32.15 -32.16,32.15l-61.35 0 0 62.83c0,17.69 -14.47,32.16 -32.16,32.16l-4.95 0c-17.69,0 -32.16,-14.47 -32.16,-32.16l0 -62.83 -61.35 0c-17.69,0 -32.15,-14.47 -32.15,-32.15l0 -4.95c0,-17.69 14.47,-32.16 32.15,-32.16l61.35 0 0 -59.86c0,-17.69 14.47,-32.16 32.16,-32.16z"/>
  <path class="fil0" d="M2919.07 0l4.1 0c14.65,0 26.62,11.98 26.62,26.62l0 49.56 50.79 0c14.64,0 26.62,11.98 26.62,26.62l0 4.1c0,14.65 -11.98,26.62 -26.62,26.62l-50.79 0 0 52.02c0,14.64 -11.98,26.62 -26.62,26.62l-4.1 0c-14.65,0 -26.62,-11.98 -26.62,-26.62l0 -52.02 -50.79 0c-14.64,0 -26.62,-11.97 -26.62,-26.62l0 -4.1c0,-14.64 11.98,-26.62 26.62,-26.62l50.79 0 0 -49.56c0,-14.65 11.98,-26.62 26.62,-26.62z"/>
  <path class="fil4" d="M685.17 1279.26l1583.98 0c12.79,0 23.25,10.46 23.25,23.25l0 46.49c0,12.78 -10.46,23.25 -23.25,23.25l-1583.98 0c-12.78,0 -23.25,-10.46 -23.25,-23.25l0 -46.49c0,-12.79 10.46,-23.25 23.25,-23.25z"/>
  <path class="fil4" d="M563.12 2032.02l1799.32 0c14.52,0 26.41,10.46 26.41,23.25l0 46.49c0,12.78 -11.89,23.25 -26.41,23.25l-1799.32 0c-14.52,0 -26.41,-10.46 -26.41,-23.25l0 -46.49c0,-12.79 11.88,-23.25 26.41,-23.25z"/>
  <rect class="fil4" x="519.98" y="1804.98" width="797.76" height="92.98" rx="26.72" ry="23.25"/>
  <path class="fil0" d="M104.03 2355.75l4.1 0c14.64,0 26.62,11.97 26.62,26.62l0 49.56 50.79 0c14.65,0 26.62,11.98 26.62,26.62l0 4.1c0,14.65 -11.97,26.62 -26.62,26.62l-50.79 0 0 52.02c0,14.65 -11.98,26.62 -26.62,26.62l-4.1 0c-14.64,0 -26.62,-11.97 -26.62,-26.62l0 -52.02 -50.79 0c-14.65,0 -26.62,-11.98 -26.62,-26.62l0 -4.1c0,-14.64 11.97,-26.62 26.62,-26.62l50.79 0 0 -49.56c0,-14.65 11.98,-26.62 26.62,-26.62z"/>
 </g>
</svg>
