<?xml version="1.0" encoding="UTF-8"?>
<!DOCTYPE svg PUBLIC "-//W3C//DTD SVG 1.1//EN" "http://www.w3.org/Graphics/SVG/1.1/DTD/svg11.dtd">
<!-- Creator: CorelDRAW 2020 (64-Bit) -->
<svg xmlns="http://www.w3.org/2000/svg" xml:space="preserve" width="3.13311in" height="2.70955in" version="1.1" style="shape-rendering:geometricPrecision; text-rendering:geometricPrecision; image-rendering:optimizeQuality; fill-rule:evenodd; clip-rule:evenodd"
viewBox="0 0 2884.96 2494.95"
 xmlns:xlink="http://www.w3.org/1999/xlink"
 xmlns:xodm="http://www.corel.com/coreldraw/odm/2003">
 <defs>
  <style type="text/css">
   <![CDATA[
    .fil0 {fill:#666666}
    .fil5 {fill:#CCCCCC}
    .fil4 {fill:#E6E6E6}
    .fil3 {fill:white}
    .fil2 {fill:#FFCC00;fill-rule:nonzero}
    .fil1 {fill:white;fill-rule:nonzero}
   ]]>
  </style>
 </defs>
 <g id="Layer_x0020_1">
  <metadata id="CorelCorpID_0Corel-Layer"/>
  <path class="fil0" d="M491.12 296.12c337.66,78.44 627.38,2.37 853.16,-279.72 190.09,281.06 480.14,344.56 856.71,277.52 69.49,688.81 -123.43,1245.77 -862.14,1586.44 -692.03,-300.93 -971.56,-882.37 -847.73,-1584.24z"/>
  <path class="fil1" d="M1671.1 431.3c-73.16,-25.64 -140.28,-59.97 -202.57,-101.2 -49.59,-32.83 -96.18,-70.07 -140.39,-110.8 -92.25,96.12 -203.89,161.19 -324.49,198.49 -129.23,39.97 -268.56,47.91 -404.98,27.94 -7.31,183.2 9.48,356.6 57.33,517.36 51.66,173.56 139.69,332.8 272.94,474.24 9.9,38.87 -22.76,71.93 -62.5,58.79 -142.97,-151.76 -237.4,-322.5 -292.76,-508.5 -55.01,-184.83 -71.28,-384.32 -58.25,-594.89l3.04 -49.06 48.03 9.41c138.45,27.13 281.33,23.12 411.94,-17.27 119.08,-36.82 228.22,-104.04 314.63,-205.65l29.95 -35.22 32.88 32.37c49.86,49.08 102.83,93.38 159.99,131.22 56.73,37.55 117.52,68.7 183.42,91.79 80.14,26.9 44.59,114.35 -28.22,80.98z"/>
  <path class="fil2" d="M1939.97 389.15c72.17,2.75 143.36,-0.69 213.58,-10.23l0.96 37.65c8.67,339.1 -64.41,616.29 -202.75,844.01 -138.34,227.7 -341.29,404.93 -592.55,544.39l-14.09 7.82 -15.28 -5.09c-50.24,-16.72 -97.07,-38.23 -140.97,-63.64 -43.63,-25.26 -84.79,-54.63 -123.88,-87.17 -27.05,-36.18 15.14,-70.77 46.95,-56.45 35.62,29.66 73.41,56.59 113.79,79.97 35.56,20.58 72.82,38.23 112.01,52.35 233.96,-132.25 422.67,-298.59 551.23,-510.21 126.03,-207.46 194.88,-459.41 192.7,-766.6 -46.94,7.54 -92.79,8.29 -138.25,6.62 -49.2,-12.11 -39.38,-68.12 -3.45,-73.44z"/>
  <rect class="fil3" x="1034.28" y="1264.94" width="338.54" height="73.76" rx="28.37" ry="28.37"/>
  <rect class="fil3" x="1439.95" y="1264.94" width="209.93" height="73.76" rx="17.59" ry="28.37"/>
  <path class="fil1" d="M1080.24 993l96.05 89.43 147.62 -151.32c36.07,-25.71 78.14,10.36 55.1,48.55l-202.09 205.85 -149.51 -141.25c-25.75,-38.84 21.46,-74.03 52.83,-51.26z"/>
  <path class="fil4" d="M2739.67 0l4.11 0c14.69,0 26.7,12.01 26.7,26.7l0 49.71 50.95 0c14.69,0 26.7,12.01 26.7,26.7l0 4.11c0,14.69 -12.01,26.7 -26.7,26.7l-50.95 0 0 52.18c0,14.69 -12.01,26.7 -26.7,26.7l-4.11 0c-14.69,0 -26.7,-12.01 -26.7,-26.7l0 -52.18 -50.94 0c-14.69,0 -26.71,-12.02 -26.71,-26.7l0 -4.11c0,-14.69 12.02,-26.7 26.71,-26.7l50.94 0 0 -49.71c0,-14.69 12.01,-26.7 26.7,-26.7z"/>
  <path class="fil4" d="M2776.49 2282.13l4.11 0c14.69,0 26.7,12.01 26.7,26.7l0 49.71 50.95 0c14.69,0 26.7,12.01 26.7,26.7l0 4.11c0,14.69 -12.02,26.7 -26.7,26.7l-50.95 0 0 52.18c0,14.69 -12.01,26.7 -26.7,26.7l-4.11 0c-14.69,0 -26.7,-12.01 -26.7,-26.7l0 -52.18 -50.95 0c-14.69,0 -26.7,-12.01 -26.7,-26.7l0 -4.11c0,-14.69 12.02,-26.7 26.7,-26.7l50.95 0 0 -49.71c0,-14.69 12.01,-26.7 26.7,-26.7z"/>
  <path class="fil5" d="M104.35 2132l4.11 0c14.69,0 26.7,12.02 26.7,26.7l0 49.72 50.95 0c14.69,0 26.7,12.01 26.7,26.7l0 4.11c0,14.69 -12.01,26.7 -26.7,26.7l-50.95 0 0 52.18c0,14.69 -12.01,26.7 -26.7,26.7l-4.11 0c-14.69,0 -26.7,-12.02 -26.7,-26.7l0 -52.18 -50.94 0c-14.69,0 -26.7,-12.01 -26.7,-26.7l0 -4.11c0,-14.69 12.01,-26.7 26.7,-26.7l50.94 0 0 -49.72c0,-14.69 12.02,-26.7 26.7,-26.7z"/>
 </g>
</svg>
